<svg width="28" height="27" viewBox="0 0 28 27" fill="none" xmlns="http://www.w3.org/2000/svg">
    <path d="M20.2221 0.859131C18.8771 0.897097 17.5721 1.33318 16.467 2.11399C15.3618 2.89481 14.5045 3.98646 13.9999 5.25531C13.4941 3.9859 12.6355 2.894 11.5291 2.11321C10.4228 1.33243 9.11669 0.896627 7.77066 0.859131C3.92752 0.859131 0.816406 4.43908 0.816406 8.77798C0.816406 17.9498 13.9999 26.062 13.9999 26.062C13.9999 26.062 27.1834 17.9498 27.1834 8.77798C27.1834 4.37464 24.0653 0.859131 20.2221 0.859131Z" stroke="white" stroke-width="2.31" stroke-miterlimit="10"/>
    <path d="M8.58024 4.67542C6.2997 4.67542 4.45557 6.77327 4.45557 9.37231" stroke="white" stroke-width="2.31" stroke-miterlimit="10"/>
</svg>
